<?xml version="1.0" encoding="iso-8859-1"?>
<!-- Generator: Adobe Illustrator 19.0.0, SVG Export Plug-In . SVG Version: 6.00 Build 0)  -->
<svg version="1.1" id="Layer_1" xmlns="http://www.w3.org/2000/svg" xmlns:xlink="http://www.w3.org/1999/xlink" x="0px" y="0px"
	 viewBox="0 0 512.013 512.013" style="enable-background:new 0 0 512.013 512.013;" xml:space="preserve">
<path style="fill:#8D6E63;" d="M292.815,100.795L260.96,78.078c-1.452-1.11-3.245-1.623-4.953-1.623
	c-1.708,0-3.501,0.512-4.953,1.623l-31.855,22.717l36.808-73.531L292.815,100.795z"/>
<path d="M322.534,387.241l-57.988-74.564V101.564l46.288,33.05c1.452,1.11,3.245,1.623,4.953,1.623c1.964,0,3.928-0.683,5.551-2.05
	c2.989-2.562,3.843-6.832,2.05-10.334L263.607,4.291c-2.818-5.722-12.383-5.722-15.201,0l-59.781,119.562
	c-1.793,3.501-0.939,7.772,2.05,10.334c2.989,2.562,7.345,2.733,10.504,0.427l46.288-33.042v211.113l-57.988,74.556
	c-1.196,1.443-1.793,3.322-1.793,5.201v111.022c0,3.672,2.306,6.918,5.807,8.113c3.416,1.11,7.259,0,9.48-2.904l53.034-68.142
	l53.034,68.151c1.623,2.135,4.185,3.331,6.747,3.331c0.939,0,1.879-0.171,2.733-0.427c3.501-1.196,5.807-4.441,5.807-8.113V392.451
	C324.328,390.563,323.73,388.684,322.534,387.241z M247.466,423.699l-42.701,54.913v-83.267l42.701-54.913V423.699z M256.006,76.456
	c-1.708,0-3.501,0.512-4.953,1.623l-31.855,22.717l36.808-73.531l36.808,73.531L260.96,78.078
	C259.508,76.968,257.714,76.456,256.006,76.456z M307.247,478.612l-42.701-54.913v-83.267l42.701,54.913V478.612z"/>
<polygon style="fill:#8D6E63;" points="247.466,340.432 247.466,423.699 204.765,478.612 204.765,395.346 "/>
<g>
	<polygon style="fill:#6D4C41;" points="307.247,395.346 307.247,478.612 264.547,423.699 264.547,340.432 	"/>
	<path style="fill:#6D4C41;" d="M260.96,67.497c-1.452-1.11-3.245-1.623-4.953-1.623c-1.708,0-3.501,0.512-4.953,1.623L227.44,84.33
		l-8.241,16.465l31.855-22.717c1.452-1.11,3.245-1.623,4.953-1.623c1.708,0,3.501,0.512,4.953,1.623l31.855,22.717l-8.241-16.465
		L260.96,67.497z"/>
</g>
<g>
</g>
<g>
</g>
<g>
</g>
<g>
</g>
<g>
</g>
<g>
</g>
<g>
</g>
<g>
</g>
<g>
</g>
<g>
</g>
<g>
</g>
<g>
</g>
<g>
</g>
<g>
</g>
<g>
</g>
</svg>
